<svg width="152" height="152" viewBox="0 0 152 152" fill="none" xmlns="http://www.w3.org/2000/svg">
<path d="M14 114.45V104.95C18.0111 104.95 21.2569 103.736 23.7375 101.308C26.2181 98.8806 29.8333 97.6667 34.5833 97.6667C39.3333 97.6667 43.0278 99.0917 45.6667 101.942C48.3056 104.792 51.6833 106.217 55.8 106.217C59.9167 106.217 63.3472 104.792 66.0917 101.942C68.8361 99.0917 72.5833 97.6667 77.3333 97.6667C82.0833 97.6667 85.8042 99.0917 88.4958 101.942C91.1875 104.792 94.5917 106.217 98.7083 106.217C102.825 106.217 106.229 104.792 108.921 101.942C111.612 99.0917 115.333 97.6667 120.083 97.6667C124.833 97.6667 128.449 98.8806 130.929 101.308C133.41 103.736 136.656 104.95 140.667 104.95V114.45C135.706 114.45 132.037 113.236 129.662 110.808C127.287 108.381 124.094 107.167 120.083 107.167C116.072 107.167 112.694 108.592 109.95 111.442C107.206 114.292 103.458 115.717 98.7083 115.717C93.9583 115.717 90.2111 114.292 87.4667 111.442C84.7222 108.592 81.3444 107.167 77.3333 107.167C73.3222 107.167 69.9181 108.592 67.1208 111.442C64.3236 114.292 60.55 115.717 55.8 115.717C51.05 115.717 47.3292 114.292 44.6375 111.442C41.9458 108.592 38.5944 107.167 34.5833 107.167C30.5722 107.167 27.3792 108.381 25.0042 110.808C22.6292 113.236 18.9611 114.45 14 114.45ZM14 89.1167V79.6167C18.0111 79.6167 21.2569 78.4028 23.7375 75.975C26.2181 73.5472 29.8333 72.3333 34.5833 72.3333C39.3333 72.3333 43.0278 73.7583 45.6667 76.6083C48.3056 79.4583 51.6833 80.8833 55.8 80.8833C59.9167 80.8833 63.3472 79.4583 66.0917 76.6083C68.8361 73.7583 72.5833 72.3333 77.3333 72.3333C82.0833 72.3333 85.8042 73.7583 88.4958 76.6083C91.1875 79.4583 94.5917 80.8833 98.7083 80.8833C102.825 80.8833 106.229 79.4583 108.921 76.6083C111.612 73.7583 115.333 72.3333 120.083 72.3333C124.833 72.3333 128.449 73.5472 130.929 75.975C133.41 78.4028 136.656 79.6167 140.667 79.6167V89.1167C135.706 89.1167 132.037 87.9028 129.662 85.475C127.287 83.0472 124.094 81.8333 120.083 81.8333C116.072 81.8333 112.694 83.2583 109.95 86.1083C107.206 88.9583 103.458 90.3833 98.7083 90.3833C93.9583 90.3833 90.2111 88.9583 87.4667 86.1083C84.7222 83.2583 81.3444 81.8333 77.3333 81.8333C73.3222 81.8333 69.9181 83.2583 67.1208 86.1083C64.3236 88.9583 60.55 90.3833 55.8 90.3833C51.05 90.3833 47.3292 88.9583 44.6375 86.1083C41.9458 83.2583 38.5944 81.8333 34.5833 81.8333C30.5722 81.8333 27.3792 83.0472 25.0042 85.475C22.6292 87.9028 18.9611 89.1167 14 89.1167ZM14 63.7833V54.2833C18.0111 54.2833 21.2569 53.0694 23.7375 50.6417C26.2181 48.2139 29.8333 47 34.5833 47C39.3333 47 43.0278 48.425 45.6667 51.275C48.3056 54.125 51.6833 55.55 55.8 55.55C59.9167 55.55 63.3472 54.125 66.0917 51.275C68.8361 48.425 72.5833 47 77.3333 47C82.0833 47 85.8042 48.425 88.4958 51.275C91.1875 54.125 94.5917 55.55 98.7083 55.55C102.825 55.55 106.229 54.125 108.921 51.275C111.612 48.425 115.333 47 120.083 47C124.833 47 128.449 48.2139 130.929 50.6417C133.41 53.0694 136.656 54.2833 140.667 54.2833V63.7833C135.706 63.7833 132.037 62.5694 129.662 60.1417C127.287 57.7139 124.094 56.5 120.083 56.5C116.072 56.5 112.694 57.925 109.95 60.775C107.206 63.625 103.458 65.05 98.7083 65.05C93.9583 65.05 90.2111 63.625 87.4667 60.775C84.7222 57.925 81.3444 56.5 77.3333 56.5C73.3222 56.5 69.9181 57.925 67.1208 60.775C64.3236 63.625 60.55 65.05 55.8 65.05C51.05 65.05 47.3292 63.625 44.6375 60.775C41.9458 57.925 38.5944 56.5 34.5833 56.5C30.5722 56.5 27.3792 57.7139 25.0042 60.1417C22.6292 62.5694 18.9611 63.7833 14 63.7833Z" fill="#EB00FF"/>
<path d="M11 110.45V100.95C15.0111 100.95 18.2569 99.7361 20.7375 97.3083C23.2181 94.8806 26.8333 93.6667 31.5833 93.6667C36.3333 93.6667 40.0278 95.0917 42.6667 97.9417C45.3056 100.792 48.6833 102.217 52.8 102.217C56.9167 102.217 60.3472 100.792 63.0917 97.9417C65.8361 95.0917 69.5833 93.6667 74.3333 93.6667C79.0833 93.6667 82.8042 95.0917 85.4958 97.9417C88.1875 100.792 91.5917 102.217 95.7083 102.217C99.825 102.217 103.229 100.792 105.921 97.9417C108.612 95.0917 112.333 93.6667 117.083 93.6667C121.833 93.6667 125.449 94.8806 127.929 97.3083C130.41 99.7361 133.656 100.95 137.667 100.95V110.45C132.706 110.45 129.037 109.236 126.662 106.808C124.287 104.381 121.094 103.167 117.083 103.167C113.072 103.167 109.694 104.592 106.95 107.442C104.206 110.292 100.458 111.717 95.7083 111.717C90.9583 111.717 87.2111 110.292 84.4667 107.442C81.7222 104.592 78.3444 103.167 74.3333 103.167C70.3222 103.167 66.9181 104.592 64.1208 107.442C61.3236 110.292 57.55 111.717 52.8 111.717C48.05 111.717 44.3292 110.292 41.6375 107.442C38.9458 104.592 35.5944 103.167 31.5833 103.167C27.5722 103.167 24.3792 104.381 22.0042 106.808C19.6292 109.236 15.9611 110.45 11 110.45ZM11 85.1167V75.6167C15.0111 75.6167 18.2569 74.4028 20.7375 71.975C23.2181 69.5472 26.8333 68.3333 31.5833 68.3333C36.3333 68.3333 40.0278 69.7583 42.6667 72.6083C45.3056 75.4583 48.6833 76.8833 52.8 76.8833C56.9167 76.8833 60.3472 75.4583 63.0917 72.6083C65.8361 69.7583 69.5833 68.3333 74.3333 68.3333C79.0833 68.3333 82.8042 69.7583 85.4958 72.6083C88.1875 75.4583 91.5917 76.8833 95.7083 76.8833C99.825 76.8833 103.229 75.4583 105.921 72.6083C108.612 69.7583 112.333 68.3333 117.083 68.3333C121.833 68.3333 125.449 69.5472 127.929 71.975C130.41 74.4028 133.656 75.6167 137.667 75.6167V85.1167C132.706 85.1167 129.037 83.9028 126.662 81.475C124.287 79.0472 121.094 77.8333 117.083 77.8333C113.072 77.8333 109.694 79.2583 106.95 82.1083C104.206 84.9583 100.458 86.3833 95.7083 86.3833C90.9583 86.3833 87.2111 84.9583 84.4667 82.1083C81.7222 79.2583 78.3444 77.8333 74.3333 77.8333C70.3222 77.8333 66.9181 79.2583 64.1208 82.1083C61.3236 84.9583 57.55 86.3833 52.8 86.3833C48.05 86.3833 44.3292 84.9583 41.6375 82.1083C38.9458 79.2583 35.5944 77.8333 31.5833 77.8333C27.5722 77.8333 24.3792 79.0472 22.0042 81.475C19.6292 83.9028 15.9611 85.1167 11 85.1167ZM11 59.7833V50.2833C15.0111 50.2833 18.2569 49.0694 20.7375 46.6417C23.2181 44.2139 26.8333 43 31.5833 43C36.3333 43 40.0278 44.425 42.6667 47.275C45.3056 50.125 48.6833 51.55 52.8 51.55C56.9167 51.55 60.3472 50.125 63.0917 47.275C65.8361 44.425 69.5833 43 74.3333 43C79.0833 43 82.8042 44.425 85.4958 47.275C88.1875 50.125 91.5917 51.55 95.7083 51.55C99.825 51.55 103.229 50.125 105.921 47.275C108.612 44.425 112.333 43 117.083 43C121.833 43 125.449 44.2139 127.929 46.6417C130.41 49.0694 133.656 50.2833 137.667 50.2833V59.7833C132.706 59.7833 129.037 58.5694 126.662 56.1417C124.287 53.7139 121.094 52.5 117.083 52.5C113.072 52.5 109.694 53.925 106.95 56.775C104.206 59.625 100.458 61.05 95.7083 61.05C90.9583 61.05 87.2111 59.625 84.4667 56.775C81.7222 53.925 78.3444 52.5 74.3333 52.5C70.3222 52.5 66.9181 53.925 64.1208 56.775C61.3236 59.625 57.55 61.05 52.8 61.05C48.05 61.05 44.3292 59.625 41.6375 56.775C38.9458 53.925 35.5944 52.5 31.5833 52.5C27.5722 52.5 24.3792 53.7139 22.0042 56.1417C19.6292 58.5694 15.9611 59.7833 11 59.7833Z" fill="#00E0FF"/>
<path d="M12.6666 112.258V102.758C16.6777 102.758 19.9236 101.544 22.4041 99.1167C24.8847 96.6889 28.5 95.475 33.25 95.475C38 95.475 41.6944 96.9 44.3333 99.75C46.9722 102.6 50.35 104.025 54.4666 104.025C58.5833 104.025 62.0138 102.6 64.7583 99.75C67.5027 96.9 71.25 95.475 76 95.475C80.75 95.475 84.4708 96.9 87.1625 99.75C89.8541 102.6 93.2583 104.025 97.375 104.025C101.492 104.025 104.896 102.6 107.587 99.75C110.279 96.9 114 95.475 118.75 95.475C123.5 95.475 127.115 96.6889 129.596 99.1167C132.076 101.544 135.322 102.758 139.333 102.758V112.258C134.372 112.258 130.704 111.044 128.329 108.617C125.954 106.189 122.761 104.975 118.75 104.975C114.739 104.975 111.361 106.4 108.617 109.25C105.872 112.1 102.125 113.525 97.375 113.525C92.625 113.525 88.8777 112.1 86.1333 109.25C83.3888 106.4 80.0111 104.975 76 104.975C71.9888 104.975 68.5847 106.4 65.7875 109.25C62.9902 112.1 59.2166 113.525 54.4666 113.525C49.7166 113.525 45.9958 112.1 43.3041 109.25C40.6125 106.4 37.2611 104.975 33.25 104.975C29.2388 104.975 26.0458 106.189 23.6708 108.617C21.2958 111.044 17.6277 112.258 12.6666 112.258ZM12.6666 86.925V77.425C16.6777 77.425 19.9236 76.2111 22.4041 73.7833C24.8847 71.3556 28.5 70.1417 33.25 70.1417C38 70.1417 41.6944 71.5667 44.3333 74.4167C46.9722 77.2667 50.35 78.6917 54.4666 78.6917C58.5833 78.6917 62.0138 77.2667 64.7583 74.4167C67.5027 71.5667 71.25 70.1417 76 70.1417C80.75 70.1417 84.4708 71.5667 87.1625 74.4167C89.8541 77.2667 93.2583 78.6917 97.375 78.6917C101.492 78.6917 104.896 77.2667 107.587 74.4167C110.279 71.5667 114 70.1417 118.75 70.1417C123.5 70.1417 127.115 71.3556 129.596 73.7833C132.076 76.2111 135.322 77.425 139.333 77.425V86.925C134.372 86.925 130.704 85.7111 128.329 83.2833C125.954 80.8556 122.761 79.6417 118.75 79.6417C114.739 79.6417 111.361 81.0667 108.617 83.9167C105.872 86.7667 102.125 88.1917 97.375 88.1917C92.625 88.1917 88.8777 86.7667 86.1333 83.9167C83.3888 81.0667 80.0111 79.6417 76 79.6417C71.9888 79.6417 68.5847 81.0667 65.7875 83.9167C62.9902 86.7667 59.2166 88.1917 54.4666 88.1917C49.7166 88.1917 45.9958 86.7667 43.3041 83.9167C40.6125 81.0667 37.2611 79.6417 33.25 79.6417C29.2388 79.6417 26.0458 80.8556 23.6708 83.2833C21.2958 85.7111 17.6277 86.925 12.6666 86.925ZM12.6666 61.5917V52.0917C16.6777 52.0917 19.9236 50.8778 22.4041 48.45C24.8847 46.0222 28.5 44.8083 33.25 44.8083C38 44.8083 41.6944 46.2334 44.3333 49.0834C46.9722 51.9334 50.35 53.3584 54.4666 53.3584C58.5833 53.3584 62.0138 51.9334 64.7583 49.0834C67.5027 46.2334 71.25 44.8083 76 44.8083C80.75 44.8083 84.4708 46.2334 87.1625 49.0834C89.8541 51.9334 93.2583 53.3584 97.375 53.3584C101.492 53.3584 104.896 51.9334 107.587 49.0834C110.279 46.2334 114 44.8083 118.75 44.8083C123.5 44.8083 127.115 46.0222 129.596 48.45C132.076 50.8778 135.322 52.0917 139.333 52.0917V61.5917C134.372 61.5917 130.704 60.3778 128.329 57.95C125.954 55.5222 122.761 54.3083 118.75 54.3083C114.739 54.3083 111.361 55.7334 108.617 58.5834C105.872 61.4333 102.125 62.8584 97.375 62.8584C92.625 62.8584 88.8777 61.4333 86.1333 58.5834C83.3888 55.7334 80.0111 54.3083 76 54.3083C71.9888 54.3083 68.5847 55.7334 65.7875 58.5834C62.9902 61.4333 59.2166 62.8584 54.4666 62.8584C49.7166 62.8584 45.9958 61.4333 43.3041 58.5834C40.6125 55.7334 37.2611 54.3083 33.25 54.3083C29.2388 54.3083 26.0458 55.5222 23.6708 57.95C21.2958 60.3778 17.6277 61.5917 12.6666 61.5917Z" fill="#E1E1E1"/>
</svg>
